<?xml version="1.0" standalone="no"?>
<!DOCTYPE svg PUBLIC "-//W3C//DTD SVG 20010904//EN"
 "http://www.w3.org/TR/2001/REC-SVG-20010904/DTD/svg10.dtd">
<svg version="1.0" xmlns="http://www.w3.org/2000/svg"
 width="1024.000000pt" height="1024.000000pt" viewBox="0 0 1024.000000 1024.000000"
 preserveAspectRatio="xMidYMid meet">

<g transform="translate(0.000000,1024.000000) scale(0.100000,-0.100000)"
fill="#000000" stroke="none">
<path d="M4908 7203 c-39 -6 -47 -21 -71 -128 l-22 -97 -104 -39 c-57 -21
-110 -44 -117 -50 -11 -9 -33 2 -105 50 -49 33 -97 61 -106 61 -20 0 -293
-271 -293 -292 0 -9 26 -56 59 -105 l58 -89 -18 -35 c-22 -42 -23 -53 -4 -45
8 3 21 -1 28 -9 10 -10 17 -11 25 -3 8 8 18 6 36 -6 14 -9 35 -16 46 -16 11 0
36 -6 55 -14 21 -9 37 -11 40 -5 12 18 23 9 17 -13 -5 -20 -3 -21 10 -10 14
11 17 10 20 -5 2 -13 12 -4 34 32 79 127 204 226 353 279 80 29 95 31 226 31
126 -1 147 -3 213 -27 109 -39 178 -84 268 -173 92 -91 145 -184 173 -305 l17
-70 238 -170 c131 -94 242 -170 246 -170 4 0 15 9 25 20 16 17 18 42 19 204 1
153 -2 188 -14 200 -8 9 -56 23 -105 32 -50 10 -95 21 -101 26 -7 5 -17 29
-23 55 -7 25 -28 81 -47 123 l-35 77 49 74 c77 117 76 111 43 155 -34 48 -228
232 -259 247 -20 9 -34 3 -112 -51 l-89 -61 -58 28 c-32 16 -83 36 -113 46
-30 10 -59 21 -64 25 -5 5 -19 52 -31 105 -13 54 -28 102 -35 109 -11 11 -314
19 -372 9z m-698 -748 c4 3 11 -2 14 -10 4 -12 2 -13 -13 -6 -10 6 -21 7 -25
3 -4 -3 -4 2 0 13 5 11 9 14 12 7 2 -7 7 -10 12 -7z"/>
<path d="M4985 6499 c-84 -63 -93 -73 -76 -84 7 -3 8 0 5 9 -3 9 -1 16 5 16
11 0 15 -15 11 -35 -1 -5 1 -7 5 -3 4 3 23 -5 42 -18 20 -13 42 -24 49 -24 7
0 20 -7 28 -16 15 -14 16 -5 16 100 0 64 -1 116 -2 116 -2 0 -39 -28 -83 -61z"/>
<path d="M4869 6413 c-13 -16 -12 -17 4 -4 16 13 21 21 13 21 -2 0 -10 -8 -17
-17z"/>
<path d="M4145 6380 c-3 -5 -1 -10 4 -10 6 0 11 5 11 10 0 6 -2 10 -4 10 -3 0
-8 -4 -11 -10z"/>
<path d="M4119 6303 l-15 -48 -102 -20 c-56 -12 -107 -26 -113 -32 -8 -8 -13
-78 -17 -196 -5 -178 -4 -185 17 -206 11 -11 27 -21 34 -21 7 0 80 50 162 111
83 61 189 140 238 175 69 51 87 70 87 90 0 15 -7 27 -17 31 -48 15 -93 38 -93
45 0 4 -9 8 -21 8 -11 0 -33 8 -47 19 -24 16 -65 34 -84 36 -3 0 -10 4 -15 9
-4 5 -3 6 3 3 7 -4 9 2 6 18 -2 14 -5 25 -6 25 -2 0 -9 -21 -17 -47z"/>
<path d="M5062 6033 c-6 -2 -10 -9 -6 -14 8 -14 21 -11 21 6 0 8 -1 15 -1 14
-1 0 -7 -3 -14 -6z"/>
<path d="M5014 5995 c-10 -8 -14 -15 -8 -15 6 0 17 7 24 15 16 19 9 19 -16 0z"/>
<path d="M5125 5993 c13 -10 20 -47 8 -40 -5 3 -10 -11 -11 -33 l-3 -38 46 -4
c54 -4 76 5 49 20 -16 9 -17 13 -5 24 8 8 11 8 7 1 -8 -14 10 -28 18 -14 8 12
-34 42 -46 35 -5 -3 -7 0 -6 7 2 7 -7 15 -20 18 -13 3 -23 10 -22 16 1 5 -4
11 -12 13 -8 2 -9 0 -3 -5z"/>
<path d="M4923 5927 c-23 -17 -45 -40 -48 -49 -3 -9 -12 -15 -20 -12 -7 3 -15
2 -18 -3 -3 -4 6 -9 19 -9 13 -1 24 2 24 7 0 5 11 2 26 -7 18 -13 28 -14 36
-6 17 17 17 56 -1 69 -9 7 -11 13 -5 13 13 0 52 29 39 30 -5 0 -29 -15 -52
-33z m27 -46 c-1 -20 -19 -33 -35 -24 -12 7 -14 13 -6 17 6 4 11 2 11 -5 0
-10 3 -10 11 -2 13 13 3 36 -12 28 -11 -7 -12 8 -2 19 7 7 33 -20 33 -33z"/>
<path d="M5255 5880 c3 -5 8 -10 11 -10 2 0 4 5 4 10 0 6 -5 10 -11 10 -5 0
-7 -4 -4 -10z"/>
<path d="M4764 5803 c-3 -11 -19 -28 -36 -38 -21 -12 -28 -14 -23 -4 8 12 6
12 -8 0 -9 -7 -17 -16 -17 -20 0 -12 83 -11 97 1 10 8 21 8 41 -1 l27 -11 -22
19 c-13 11 -23 26 -23 34 0 8 -7 20 -16 27 -13 11 -16 10 -20 -7z m24 -18 c-3
-3 -9 2 -12 12 -6 14 -5 15 5 6 7 -7 10 -15 7 -18z"/>
<path d="M5363 5801 c-5 -18 -8 -19 -21 -9 -13 11 -15 9 -10 -15 4 -21 2 -27
-8 -23 -7 3 -11 0 -8 -7 3 -8 34 -12 89 -13 47 -1 85 0 85 2 0 2 -27 22 -61
44 -57 40 -61 41 -66 21z"/>
<path d="M4729 5783 c-13 -16 -12 -17 4 -4 16 13 21 21 13 21 -2 0 -10 -8 -17
-17z"/>
<path d="M5316 5707 c3 -10 9 -15 12 -12 3 3 0 11 -7 18 -10 9 -11 8 -5 -6z"/>
<path d="M5297 5688 c4 -7 13 -49 19 -93 l11 -80 2 78 c1 56 -3 83 -13 93 -18
17 -30 18 -19 2z"/>
<path d="M4120 5670 c0 -6 20 -50 44 -99 l43 -89 -58 -87 c-33 -47 -59 -95
-59 -107 0 -21 71 -94 212 -219 91 -80 89 -80 199 1 36 28 71 50 77 50 5 0 40
-13 76 -30 l66 -29 0 182 0 183 -28 16 c-54 32 -120 98 -168 168 l-48 70 -178
0 c-113 0 -178 -4 -178 -10z"/>
<path d="M4863 5653 c-7 -3 -13 -12 -14 -21 0 -14 -2 -13 -9 3 l-9 20 0 -20
c-1 -17 -3 -17 -11 -5 -7 10 -10 -18 -10 -87 0 -69 4 -103 11 -103 8 0 9 -20
4 -67 -4 -38 -9 -153 -11 -258 l-4 -190 30 -61 c19 -38 39 -65 55 -72 35 -16
325 -16 360 0 16 7 36 33 55 72 l28 61 -5 218 c-3 119 -10 217 -15 217 -4 0
-9 17 -9 38 -2 32 -2 33 -6 7 -9 -75 -11 -78 -51 -70 -51 9 -62 18 -32 25 l25
6 -22 19 c-19 16 -23 30 -23 77 l0 58 36 0 36 0 -32 41 c-30 37 -36 40 -74 37
-40 -3 -41 -4 -44 -40 l-3 -38 -60 0 -59 0 0 -40 c0 -32 -4 -40 -18 -40 -16 0
-21 13 -29 78 l-11 77 2 -76 c1 -75 0 -77 -31 -100 -18 -13 -34 -33 -36 -44
-2 -11 -5 -1 -6 23 -1 30 -5 42 -16 42 -9 0 -15 9 -14 23 1 16 2 18 6 5 4 -16
6 -16 19 -4 8 8 14 24 14 35 0 13 6 21 16 21 14 0 16 8 12 49 -5 52 -26 90
-45 84z"/>
<path d="M5287 5615 c-4 -22 -6 -53 -6 -70 1 -16 5 -3 10 30 10 67 6 102 -4
40z"/>
<path d="M5306 5474 c-10 -25 -7 -34 9 -34 9 0 15 9 15 25 0 28 -15 34 -24 9z"/>
<path d="M5281 5454 c0 -11 3 -14 6 -6 3 7 2 16 -1 19 -3 4 -6 -2 -5 -13z"/>
<path d="M5430 5098 l0 -38 45 22 c49 24 51 41 4 31 -21 -4 -34 -1 -40 8 -6
10 -9 2 -9 -23z"/>
<path d="M5724 5038 c36 -33 46 -34 77 -8 l24 20 -34 -17 c-25 -14 -35 -15
-38 -5 -3 6 -10 12 -16 12 -6 0 -18 6 -27 13 -9 6 -3 0 14 -15z"/>
<path d="M5070 4171 c-5 -11 -10 -38 -10 -60 0 -49 17 -61 89 -61 56 0 71 14
71 70 0 58 -14 70 -80 70 -48 0 -61 -4 -70 -19z"/>
<path d="M5950 3820 l0 -360 75 0 75 0 0 344 c0 189 -3 351 -6 360 -5 12 -21
16 -75 16 l-69 0 0 -360z"/>
<path d="M7738 4163 c7 -3 16 -2 19 1 4 3 -2 6 -13 5 -11 0 -14 -3 -6 -6z"/>
<path d="M2022 4138 c-9 -9 -12 -99 -12 -345 l0 -333 70 0 70 0 0 248 1 247
30 -65 c17 -36 62 -141 101 -235 39 -93 78 -178 86 -188 13 -14 28 -17 71 -15
l56 3 38 95 c73 180 160 385 169 395 4 5 8 -102 8 -238 l0 -247 70 0 70 0 0
335 c0 390 12 358 -127 353 l-87 -3 -78 -190 c-42 -104 -88 -216 -100 -247
-13 -32 -25 -58 -28 -58 -3 0 -50 107 -104 239 -53 131 -102 243 -109 250 -15
15 -179 15 -195 -1z"/>
<path d="M6342 4124 c-7 -8 -8 -14 -3 -14 10 0 25 19 20 25 -2 1 -10 -3 -17
-11z"/>
<path d="M6840 4133 c5 -2 8 -9 4 -14 -3 -5 0 -9 6 -9 15 0 7 23 -8 26 -7 1
-8 0 -2 -3z"/>
<path d="M3647 4114 c-4 -4 -7 -36 -7 -71 l0 -63 -45 0 -45 0 0 -54 0 -55 43
-3 42 -3 5 -166 c4 -149 7 -169 25 -189 36 -39 76 -53 172 -58 l93 -5 0 62 0
61 -58 0 c-87 0 -92 8 -92 163 l0 126 73 3 72 3 3 58 3 57 -75 0 -75 0 -3 68
-3 67 -60 3 c-34 2 -64 0 -68 -4z"/>
<path d="M6853 4030 c0 -30 2 -43 4 -27 2 15 2 39 0 55 -2 15 -4 2 -4 -28z"/>
<path d="M6232 4020 c0 -14 2 -19 5 -12 2 6 2 18 0 25 -3 6 -5 1 -5 -13z"/>
<path d="M4172 3989 c-66 -11 -103 -30 -135 -69 -34 -40 -42 -82 -41 -216 2
-149 21 -195 96 -229 96 -43 294 -42 370 3 36 21 68 71 68 105 0 25 -3 26 -62
29 -58 3 -65 1 -90 -26 -27 -27 -31 -28 -113 -25 -95 4 -121 20 -127 74 l-3
30 170 5 c94 3 178 9 188 14 45 22 62 129 32 204 -17 43 -51 72 -104 90 -48
17 -185 23 -249 11z m208 -134 c14 -13 20 -28 18 -49 l-3 -31 -127 -3 -128 -3
0 29 c0 60 44 83 152 79 49 -2 72 -8 88 -22z"/>
<path d="M3073 3978 c-50 -17 -85 -60 -90 -112 l-6 -46 66 0 c56 0 67 3 72 19
8 27 67 44 131 39 65 -6 94 -28 94 -74 l0 -32 -142 -4 c-162 -3 -199 -16 -230
-78 -22 -44 -23 -121 -2 -166 32 -67 152 -96 322 -75 183 22 195 41 190 276
-3 148 -5 166 -24 192 -43 57 -76 68 -219 70 -72 1 -144 -3 -162 -9z m267
-342 c0 -64 -21 -76 -132 -76 -94 0 -118 11 -118 54 0 46 47 64 168 65 l82 1
0 -44z"/>
<path d="M4756 3975 c-57 -20 -89 -47 -103 -86 -8 -22 -12 -106 -12 -231 l-1
-198 70 0 70 0 0 180 c0 164 2 182 19 199 22 22 112 37 166 27 l36 -7 -3 63
-3 63 -100 2 c-66 2 -113 -2 -139 -12z"/>
<path d="M5450 3983 c-62 -24 -81 -38 -100 -77 -11 -23 -20 -52 -20 -64 0 -20
5 -22 69 -22 60 0 69 2 74 20 6 25 45 40 103 40 67 0 111 -22 119 -59 3 -17 4
-35 0 -41 -4 -6 -55 -10 -123 -10 -200 -1 -262 -39 -262 -162 0 -79 20 -114
78 -141 41 -19 63 -22 172 -21 146 1 220 21 254 67 19 26 21 42 21 195 0 149
-2 171 -20 201 -35 59 -82 76 -225 78 -69 1 -132 0 -140 -4z m248 -350 c4 -59
-19 -73 -126 -73 -46 0 -92 5 -103 10 -24 13 -25 61 -1 82 24 23 46 26 142 25
l85 -2 3 -42z"/>
<path d="M5070 3720 l0 -260 70 0 70 0 0 260 0 260 -70 0 -70 0 0 -260z"/>
<path d="M8030 3970 c-8 -5 -10 -10 -5 -10 6 0 17 5 25 10 8 5 11 10 5 10 -5
0 -17 -5 -25 -10z"/>
<path d="M7793 3952 c-30 -16 -31 -18 -16 -37 12 -15 14 -16 10 -3 -4 11 0 19
13 23 10 3 21 12 24 20 6 18 8 18 -31 -3z"/>
<path d="M6345 3930 c3 -5 8 -10 11 -10 2 0 4 5 4 10 0 6 -5 10 -11 10 -5 0
-7 -4 -4 -10z"/>
<path d="M8013 3923 c-7 -2 -13 -9 -13 -15 0 -7 5 -7 13 1 8 6 18 7 22 3 5 -4
5 -1 1 6 -4 6 -8 12 -9 11 -1 0 -8 -3 -14 -6z"/>
<path d="M6351 3904 c-1 -5 -8 -19 -17 -30 -14 -18 -15 -18 -4 4 13 26 3 29
-16 5 -21 -28 -17 -43 10 -41 14 1 22 6 19 11 -2 4 1 14 7 22 7 8 10 20 7 27
-3 7 -6 8 -6 2z"/>
<path d="M6366 3855 c4 -8 12 -15 20 -15 20 0 17 7 -6 20 -16 9 -18 8 -14 -5z"/>
<path d="M8162 3845 c0 -16 2 -22 5 -12 2 9 2 23 0 30 -3 6 -5 -1 -5 -18z"/>
<path d="M6255 3850 c-3 -5 1 -10 9 -10 9 0 16 5 16 10 0 6 -4 10 -9 10 -6 0
-13 -4 -16 -10z"/>
<path d="M6706 3843 c7 -4 14 -19 17 -33 4 -22 5 -21 4 4 -1 17 -9 31 -17 33
-10 3 -11 2 -4 -4z"/>
<path d="M6480 3830 c0 -13 60 -13 80 0 11 7 2 10 -32 10 -27 0 -48 -4 -48
-10z"/>
<path d="M6847 3781 c-2 -32 -13 -70 -22 -84 -9 -15 -15 -32 -12 -39 4 -8 6
-6 6 5 1 9 8 17 17 17 15 0 16 -10 11 -81 -3 -44 -7 -82 -9 -85 -3 -2 -19 -7
-36 -10 -22 -5 -32 -3 -32 6 0 7 8 10 19 7 26 -6 45 8 38 28 -4 9 -11 13 -17
10 -6 -4 -10 5 -10 19 0 16 -6 26 -15 26 -10 0 -15 10 -15 30 0 23 -4 30 -20
30 -19 0 -20 -7 -20 -100 0 -64 4 -100 11 -100 5 0 7 5 4 10 -6 10 -2 12 46
15 14 1 32 6 40 10 12 7 12 6 1 -7 -10 -13 -10 -17 4 -22 8 -3 17 -6 19 -6 2
0 4 86 5 190 0 105 -1 190 -3 190 -2 0 -7 -26 -10 -59z m-87 -281 c0 -5 -4
-10 -10 -10 -5 0 -10 5 -10 10 0 6 5 10 10 10 6 0 10 -4 10 -10z"/>
<path d="M8172 3717 c-1 -54 -7 -107 -12 -118 -8 -13 -7 -19 0 -19 18 0 21 22
17 131 l-3 104 -2 -98z"/>
<path d="M6988 3771 c-5 -18 -8 -52 -8 -75 1 -33 3 -37 11 -23 5 9 9 43 7 75
-3 52 -4 54 -10 23z"/>
<path d="M8050 3710 c1 -58 2 -63 15 -47 8 12 11 32 8 55 -10 64 -23 59 -23
-8z"/>
<path d="M6323 3671 c-5 -19 -7 -20 -41 -5 -46 19 -52 10 -52 -77 0 -61 2 -67
23 -73 33 -9 49 -7 42 5 -4 6 2 13 14 16 12 3 21 10 21 17 0 6 4 4 10 -4 14
-23 22 7 18 75 -3 60 -24 87 -35 46z m21 -6 c-4 -8 -8 -15 -10 -15 -2 0 -4 7
-4 15 0 8 4 15 10 15 5 0 7 -7 4 -15z"/>
<path d="M7461 3614 c0 -11 3 -14 6 -6 3 7 2 16 -1 19 -3 4 -6 -2 -5 -13z"/>
<path d="M7421 3599 c-1 -27 -28 -59 -50 -59 -8 0 -7 -7 4 -23 8 -13 13 -26
10 -29 -3 -3 3 -8 14 -11 16 -4 19 0 18 22 -2 21 2 25 18 23 16 -2 17 -1 6 7
-10 6 -21 6 -33 0 -24 -13 -23 0 3 27 13 14 19 31 16 46 -4 22 -4 22 -6 -3z"/>
<path d="M7443 3600 c2 -8 0 -24 -5 -35 -9 -19 -8 -19 6 -1 16 19 36 14 36
-10 0 -8 -4 -12 -10 -9 -6 3 -10 -5 -10 -18 0 -21 -4 -24 -22 -20 -21 4 -22 3
-4 -7 15 -10 22 -8 42 14 27 28 44 86 25 86 -6 0 -11 -4 -11 -10 0 -11 -31 -1
-43 14 -5 7 -7 5 -4 -4z"/>
<path d="M7122 3574 c-1 -15 2 -32 8 -39 7 -8 3 -16 -15 -25 -13 -7 -22 -17
-19 -22 12 -19 -14 -6 -34 17 -12 14 -30 24 -39 24 -17 -1 -17 -2 0 -6 9 -2
15 -8 12 -12 -9 -15 32 -42 71 -47 36 -5 38 -4 20 10 -19 16 -14 36 10 36 17
0 19 30 2 31 -7 0 -2 5 11 10 29 12 38 5 21 -16 -7 -8 -8 -15 -2 -15 13 0 24
29 16 41 -3 6 -11 8 -17 6 -6 -2 -19 5 -27 16 -15 18 -16 18 -18 -9z"/>
<path d="M7640 3573 c0 -5 5 -15 10 -23 8 -12 10 -11 10 8 0 12 -4 22 -10 22
-5 0 -10 -3 -10 -7z"/>
<path d="M7370 3559 c0 -5 5 -7 10 -4 6 3 10 8 10 11 0 2 -4 4 -10 4 -5 0 -10
-5 -10 -11z"/>
<path d="M8120 3559 c0 -5 5 -7 10 -4 6 3 10 8 10 11 0 2 -4 4 -10 4 -5 0 -10
-5 -10 -11z"/>
<path d="M8144 3545 c-9 -14 -15 -28 -12 -30 2 -2 12 9 22 25 21 36 13 40 -10
5z"/>
<path d="M7860 3540 c0 -5 7 -10 16 -10 8 0 12 5 9 10 -3 6 -10 10 -16 10 -5
0 -9 -4 -9 -10z"/>
<path d="M7198 3523 c7 -3 16 -2 19 1 4 3 -2 6 -13 5 -11 0 -14 -3 -6 -6z"/>
<path d="M7835 3520 c3 -5 0 -10 -8 -10 -8 0 -17 -7 -21 -15 -3 -8 -1 -15 4
-15 6 0 10 5 10 11 0 6 7 8 16 5 8 -3 12 -2 9 4 -3 6 2 10 12 10 15 0 16 2 3
10 -20 13 -33 13 -25 0z"/>
<path d="M7996 3518 c3 -5 10 -6 15 -3 13 9 11 12 -6 12 -8 0 -12 -4 -9 -9z"/>
<path d="M7780 3499 c0 -5 5 -7 10 -4 6 3 10 8 10 11 0 2 -4 4 -10 4 -5 0 -10
-5 -10 -11z"/>
<path d="M8000 3503 c-33 -6 -50 -23 -24 -24 10 0 32 -2 49 -4 31 -4 52 14 32
27 -13 8 -16 8 -57 1z"/>
<path d="M7160 3490 c-13 -8 -12 -10 3 -10 9 0 17 5 17 10 0 12 -1 12 -20 0z"/>
<path d="M7338 3493 c6 -2 18 -2 25 0 6 3 1 5 -13 5 -14 0 -19 -2 -12 -5z"/>
<path d="M7707 3489 c7 -7 15 -10 18 -7 3 3 -2 9 -12 12 -14 6 -15 5 -6 -5z"/>
<path d="M7293 3484 c20 -6 22 -20 5 -27 -7 -3 -3 -6 10 -6 12 -1 22 4 22 9 0
6 8 10 17 10 28 0 10 7 -32 13 -22 3 -32 3 -22 1z"/>
<path d="M7740 3480 c0 -11 21 -17 85 -25 48 -7 49 -6 28 9 -12 9 -28 13 -37
10 -9 -3 -24 -3 -33 1 -28 12 -43 14 -43 5z"/>
<path d="M6785 3470 c-3 -5 1 -10 10 -10 9 0 13 5 10 10 -3 6 -8 10 -10 10 -2
0 -7 -4 -10 -10z"/>
<path d="M7995 3460 c-19 -8 -19 -9 3 -9 12 -1 22 4 22 9 0 6 -1 10 -2 9 -2 0
-12 -4 -23 -9z"/>
<path d="M7258 3453 c7 -3 16 -2 19 1 4 3 -2 6 -13 5 -11 0 -14 -3 -6 -6z"/>
</g>
</svg>
